<svg xmlns="http://www.w3.org/2000/svg" aria-hidden="true" style="position:absolute;width:0;height:0;overflow:hidden"><defs><symbol id="icon-arrow-right" viewBox="0 0 30 32"><path stroke-linecap="round" stroke-linejoin="round" stroke-width="2.189" d="M4.632 16h16.842M15.158 7.158 24 16l-8.842 8.842"/></symbol><symbol id="icon-chevron-down" viewBox="0 0 30 32"><path stroke-linecap="round" stroke-linejoin="round" stroke-width="3.048" d="m22.857 12.19-7.619 7.619-7.619-7.619"/></symbol><symbol id="icon-clock" viewBox="0 0 32 32"><path stroke-linecap="round" stroke-linejoin="round" stroke-width="2.88" d="M16 29.333c7.364 0 13.333-5.97 13.333-13.333S23.363 2.667 16 2.667C8.636 2.667 2.667 8.637 2.667 16S8.637 29.333 16 29.333z"/><path stroke-linecap="round" stroke-linejoin="round" stroke-width="2.88" d="M16 8v8l5.333 2.667"/></symbol><symbol id="icon-facebook" viewBox="0 0 30 32"><path d="M30.476 16.092c0-8.466-6.823-15.33-15.238-15.33S0 7.626 0 16.092c0 7.651 5.571 13.994 12.857 15.145V20.525h-3.87v-4.433h3.87v-3.377c0-3.841 2.276-5.965 5.756-5.965 1.667 0 3.412.3 3.412.3v3.773h-1.922c-1.892 0-2.484 1.181-2.484 2.395v2.874h4.226l-.675 4.433h-3.55v10.713c7.286-1.15 12.857-7.493 12.857-15.146z"/></symbol><symbol id="icon-instagram" viewBox="0 0 30 32"><path d="M21.587 3.301a6.368 6.368 0 0 1 6.349 6.349v12.698a6.368 6.368 0 0 1-6.349 6.349H8.889a6.37 6.37 0 0 1-6.349-6.349V9.65a6.37 6.37 0 0 1 6.349-6.349h12.698zm0-2.539H8.889C4 .762 0 4.762 0 9.651v12.698c0 4.889 4 8.889 8.889 8.889h12.698c4.889 0 8.889-4 8.889-8.889V9.651c0-4.889-4-8.889-8.889-8.889z"/><path d="M23.492 9.654a1.905 1.905 0 1 1 .003-3.812 1.905 1.905 0 0 1-.004 3.813zm-8.254 1.269a5.079 5.079 0 1 1 .003 10.156 5.079 5.079 0 0 1-.004-10.155zm0-2.539a7.62 7.62 0 0 0-7.473 9.105 7.624 7.624 0 0 0 5.986 5.986 7.616 7.616 0 0 0 7.821-3.24 7.62 7.62 0 0 0-6.335-11.852z"/></symbol><symbol id="icon-lock-02" viewBox="0 0 31 32"><path stroke-linecap="round" stroke-linejoin="round" stroke-width="2.56" d="M21.76 14.72v-3.84c0-3.535-2.865-6.4-6.4-6.4s-6.4 2.865-6.4 6.4v3.84m1.024 12.8h10.752c2.151 0 3.226 0 4.047-.419a3.838 3.838 0 0 0 1.678-1.678c.419-.822.419-1.897.419-4.047v-.512c0-2.151 0-3.226-.419-4.047a3.838 3.838 0 0 0-1.678-1.678c-.822-.419-1.897-.419-4.047-.419H9.984c-2.151 0-3.226 0-4.047.419a3.838 3.838 0 0 0-1.678 1.678c-.419.822-.419 1.897-.419 4.047v.512c0 2.151 0 3.226.419 4.047.368.723.956 1.31 1.678 1.678.821.419 1.897.419 4.047.419z"/></symbol><symbol id="icon-logo" viewBox="0 0 32 32"><path stroke-linecap="round" stroke-linejoin="round" stroke-width="2.182" d="M3.201 3.309v5.817c0 1.661.725 3.132 1.848 4.083.549.465.912 1.094.912 1.791v9.71c0 1.079.928 1.956 2.071 1.956s2.071-.876 2.071-1.956V15c0-.697.363-1.326.912-1.791 1.124-.952 1.848-2.422 1.848-4.083M8.031 9.718V3.199M26.667 4.571c0-.72-.618-1.304-1.38-1.304h-1.38c-2.287 0-4.141 1.751-4.141 3.911V15c0 1.7 1.155 3.133 2.761 3.671v6.039c0 1.079.928 1.956 2.071 1.956s2.071-.876 2.071-1.956V4.57z"/></symbol><symbol id="icon-mail-01" viewBox="0 0 31 32"><path stroke-linecap="round" stroke-linejoin="round" stroke-width="2.56" d="m2.56 9.6 10.451 7.316c.846.593 1.27.889 1.73 1.003.407.101.832.101 1.238 0 .46-.115.883-.411 1.73-1.003L28.16 9.6M8.704 26.24h13.312c2.151 0 3.226 0 4.047-.419a3.838 3.838 0 0 0 1.678-1.678c.419-.822.419-1.897.419-4.047v-8.192c0-2.151 0-3.226-.419-4.047a3.838 3.838 0 0 0-1.678-1.678c-.822-.419-1.897-.419-4.047-.419H8.704c-2.151 0-3.226 0-4.047.419a3.838 3.838 0 0 0-1.678 1.678c-.419.821-.419 1.897-.419 4.047v8.192c0 2.151 0 3.226.419 4.047.368.723.956 1.31 1.678 1.678.821.419 1.897.419 4.047.419z"/></symbol><symbol id="icon-Minus" viewBox="0 0 32 32"><path stroke-linecap="round" stroke-linejoin="round" stroke-width="3" d="M5 16h22"/></symbol><symbol id="icon-pencil" viewBox="0 0 32 32"><path stroke-linecap="round" stroke-linejoin="round" stroke-width="2.447" d="M2.355 25.551c.086-.778.13-1.168.247-1.531a3.73 3.73 0 0 1 .439-.913c.211-.319.487-.596 1.041-1.15L23.451 2.588a4.215 4.215 0 0 1 5.961 5.961L10.043 27.918c-.554.554-.831.831-1.15 1.041-.283.187-.59.334-.913.439-.364.118-.753.161-1.531.248l-4.606.512.512-4.606z"/></symbol><symbol id="icon-plus" viewBox="0 0 32 32"><path stroke-linecap="round" stroke-linejoin="round" stroke-width="3" d="M5 16h22M16 5v22"/></symbol><symbol id="icon-search" viewBox="0 0 32 32"><path stroke-linecap="round" stroke-linejoin="round" stroke-width="2.667" d="M14.667 25.333c5.891 0 10.667-4.776 10.667-10.667S20.558 3.999 14.667 3.999 4 8.775 4 14.666s4.776 10.667 10.667 10.667zM28 28l-5.8-5.8"/></symbol><symbol id="icon-trash_can" viewBox="0 0 29 32"><path stroke-linecap="round" stroke-linejoin="round" stroke-width="2.909" d="M20.364 7.273V6.109c0-1.629 0-2.444-.317-3.066a2.913 2.913 0 0 0-1.271-1.271c-.622-.317-1.437-.317-3.066-.317h-2.327c-1.629 0-2.444 0-3.066.317a2.913 2.913 0 0 0-1.271 1.271c-.317.622-.317 1.437-.317 3.066v1.164m2.907 8v7.273m5.819-7.273v7.273m-16-15.273h26.182m-2.91 0v16.291c0 2.444 0 3.666-.476 4.599a4.36 4.36 0 0 1-1.907 1.907c-.934.476-2.155.476-4.599.476h-6.4c-2.444 0-3.666 0-4.599-.476a4.36 4.36 0 0 1-1.907-1.907c-.476-.934-.476-2.155-.476-4.599V7.273"/></symbol><symbol id="icon-twitter" viewBox="0 0 38 32"><path d="M37.647 4.51a15.806 15.806 0 0 1-4.435 1.2 7.647 7.647 0 0 0 3.398-4.204 15.506 15.506 0 0 1-4.907 1.843 7.771 7.771 0 0 0-5.64-2.407c-4.268 0-7.722 3.404-7.722 7.6a7.321 7.321 0 0 0 .199 1.733A22.004 22.004 0 0 1 2.619 2.33a7.496 7.496 0 0 0-1.05 3.82c0 2.635 1.375 4.965 3.451 6.329a7.646 7.646 0 0 1-3.512-.949v.094c0 3.686 2.667 6.753 6.196 7.451a7.899 7.899 0 0 1-2.034.267 7.452 7.452 0 0 1-1.452-.141c.981 3.019 3.837 5.216 7.22 5.278a15.659 15.659 0 0 1-9.594 3.255 15.992 15.992 0 0 1-1.843-.11 21.854 21.854 0 0 0 11.823 3.435c14.224 0 21.995-11.584 21.995-21.631 0-.329-.008-.659-.024-.98a15.57 15.57 0 0 0 3.853-3.937z"/></symbol><symbol id="icon-user-01" viewBox="0 0 31 32"><path stroke-linecap="round" stroke-linejoin="round" stroke-width="2.56" d="M25.6 27.52c0-1.786 0-2.679-.22-3.406a5.12 5.12 0 0 0-3.413-3.413c-.727-.22-1.62-.22-3.406-.22h-6.4c-1.786 0-2.679 0-3.406.22a5.12 5.12 0 0 0-3.413 3.413c-.22.727-.22 1.62-.22 3.406M21.12 10.24a5.76 5.76 0 1 1-11.52 0 5.76 5.76 0 0 1 11.52 0z"/></symbol><symbol id="icon-X" viewBox="0 0 30 32"><path stroke-linecap="round" stroke-linejoin="round" stroke-width="2.286" d="M23.81 7.429 6.667 24.572M23.81 24.571 6.667 7.428"/></symbol><symbol id="icon-youtube" viewBox="0 0 43 32"><path d="M42.393 7.066c0-3.75-2.759-6.766-6.167-6.766C31.609.084 26.9.001 22.088.001h-1.5c-4.801 0-9.518.083-14.135.3-3.4 0-6.159 3.033-6.159 6.783a124.152 124.152 0 0 0-.292 8.899c-.008 2.967.086 5.936.283 8.908 0 3.75 2.759 6.791 6.159 6.791 4.851.225 9.826.325 14.885.317 5.067.017 10.029-.089 14.885-.317 3.409 0 6.167-3.042 6.167-6.791.2-2.975.292-5.942.284-8.916.019-2.967-.072-5.936-.272-8.908zm-25.14 17.091V7.782l12.085 8.183-12.085 8.191z"/></symbol></defs></svg>